<svg xmlns="http://www.w3.org/2000/svg" width="219.564" height="168.529" viewBox="0 0 219.564 168.529">
  <g id="By.U_Logo" data-name="By.U Logo" transform="translate(-436.589 -143.684)">
    <g id="Group_42" data-name="Group 42">
      <path id="Path_32" data-name="Path 32" d="M469.346,266.7c-6.481,0-11.889-1.9-16.073-5.656l-.844-.757v4.838l-15.828,0-.013-74.767,15.828,0,0,27.782.844-.757c4.184-3.757,9.594-5.662,16.08-5.663,14.414,0,25.283,11.817,25.285,27.487a28.512,28.512,0,0,1-7.5,19.925,24.382,24.382,0,0,1-17.775,7.568Zm-3.47-41.678c-7.544,0-13.452,6.236-13.451,14.192s5.911,14.185,13.453,14.185c7.8,0,13.241-5.836,13.24-14.19s-5.447-14.187-13.242-14.187Z" fill="#fff"/>
      <path id="Path_33" data-name="Path 33" d="M515.19,265.031,493.5,214.389l17,0,12.856,31.636,13.709-31.641,17,0-30.076,69.826-17.105,0Z" fill="#fff"/>
      <circle id="Ellipse_38" data-name="Ellipse 38" cx="9.343" cy="9.343" r="9.343" transform="matrix(0.284, -0.959, 0.959, 0.284, 549.068, 262.107)" fill="#fff"/>
      <path id="Path_34" data-name="Path 34" d="M599.827,174.071a8,8,0,0,0,3.663-6.708c.055-4.669-5.069-9.564-11.165-7.944s-7.917,9.281-9.755,17.684a208.372,208.372,0,0,0-3.659,46.808c.832,18.513,4.505,43.92,21.086,44.344,0,0,8.379,1.259,17.86-12.827a106.977,106.977,0,0,0,9.345-16.742s.862,14.552,3.034,28.668c2.124,13.8,10.4,20.063,17.5,14.393,5.008-4,2.356-9.79-.732-13.976-2.276-3.085-3.268-23.385-3.686-32.992-.256-5.869-.133-29.389,1.844-41.731,0,0,6.428-19.436,9.836-30.78s-1.228-18.576-7.58-18.584-10.984,7.771-12.391,15.833a259.662,259.662,0,0,0-5.86,30.07s-6.619,18.517-12.985,34.158-13.5,25.853-15.737,27.066c0,0-5.709-5.4-5.444-31.407S596.1,191.263,599.827,174.071Z" fill="#fff"/>
    </g>
    <g id="Group_43" data-name="Group 43">
      <path id="Path_35" data-name="Path 35" d="M436.589,304.876,439,303.468a3.2,3.2,0,0,0,3.285,2.183c1.694,0,2.286-.714,2.286-1.51,0-1.061-.959-1.469-3.081-2.081-2.184-.633-4.306-1.551-4.306-4.265,0-2.694,2.245-4.245,4.694-4.245a5.43,5.43,0,0,1,5.1,3.2l-2.367,1.367a2.807,2.807,0,0,0-2.734-1.836c-1.184,0-1.878.612-1.878,1.428,0,.877.551,1.347,2.714,2,2.265.714,4.673,1.469,4.673,4.387,0,2.674-2.142,4.306-5.183,4.306C439.283,308.406,437.364,307,436.589,304.876Z" fill="#fff"/>
      <path id="Path_36" data-name="Path 36" d="M454.487,306.019A2.827,2.827,0,0,0,456.772,305l2.123,1.225a5.164,5.164,0,0,1-4.449,2.183,5.389,5.389,0,1,1-.2-10.775,5.159,5.159,0,0,1,5.163,5.388,6.093,6.093,0,0,1-.1,1.081h-7.694A2.68,2.68,0,0,0,454.487,306.019Zm2.285-3.959a2.474,2.474,0,0,0-2.53-2.061,2.544,2.544,0,0,0-2.673,2.061Z" fill="#fff"/>
      <path id="Path_37" data-name="Path 37" d="M476.642,301.835v6.286h-2.633v-6.1c0-1.2-.612-1.939-1.714-1.939-1.163,0-1.9.776-1.9,2.306v5.735h-2.632v-6.1c0-1.2-.612-1.939-1.714-1.939-1.123,0-1.919.776-1.919,2.306v5.735H461.5v-10.2h2.632V299a3.221,3.221,0,0,1,2.837-1.368,3.059,3.059,0,0,1,2.775,1.47,3.5,3.5,0,0,1,3.041-1.47C475.111,297.631,476.642,299.284,476.642,301.835Z" fill="#fff"/>
      <path id="Path_38" data-name="Path 38" d="M488.574,297.917v10.2h-2.632v-1.143a3.471,3.471,0,0,1-3.041,1.428c-2.163,0-3.857-1.51-3.857-4.224v-6.265h2.632v5.938a1.9,1.9,0,0,0,2.021,2.1c1.286,0,2.245-.755,2.245-2.53v-5.51Z" fill="#fff"/>
      <path id="Path_39" data-name="Path 39" d="M501.605,297.917v10.2h-2.632v-1.2a4.064,4.064,0,0,1-3.327,1.489,5.406,5.406,0,0,1,0-10.775,4.064,4.064,0,0,1,3.327,1.49v-1.2Zm-2.632,5.1a2.827,2.827,0,1,0-2.837,2.877A2.744,2.744,0,0,0,498.973,303.019Z" fill="#fff"/>
      <path id="Path_40" data-name="Path 40" d="M513.777,301.855v6.266h-2.633v-5.939a1.9,1.9,0,0,0-2.02-2.1c-1.286,0-2.245.755-2.245,2.531v5.51h-2.632v-10.2h2.632v1.143a3.467,3.467,0,0,1,3.041-1.429C512.083,297.631,513.777,299.141,513.777,301.855Z" fill="#fff"/>
      <path id="Path_41" data-name="Path 41" d="M525.232,297.917l-3.714,10.2c-1.061,2.938-2.795,4.224-5.387,4.081v-2.449a2.487,2.487,0,0,0,2.673-1.959l-4.184-9.877H517.5l2.653,6.857,2.265-6.857Z" fill="#fff"/>
      <path id="Path_42" data-name="Path 42" d="M536.653,297.917v10.2h-2.632v-1.2a4.064,4.064,0,0,1-3.327,1.489,5.406,5.406,0,0,1,0-10.775,4.064,4.064,0,0,1,3.327,1.49v-1.2Zm-2.632,5.1a2.827,2.827,0,1,0-2.837,2.877A2.744,2.744,0,0,0,534.021,303.019Z" fill="#fff"/>
      <path id="Path_43" data-name="Path 43" d="M544.549,304.876l2.408-1.408a3.2,3.2,0,0,0,3.286,2.183c1.694,0,2.285-.714,2.285-1.51,0-1.061-.959-1.469-3.081-2.081-2.184-.633-4.306-1.551-4.306-4.265,0-2.694,2.245-4.245,4.694-4.245a5.43,5.43,0,0,1,5.1,3.2l-2.367,1.367a2.807,2.807,0,0,0-2.734-1.836c-1.184,0-1.878.612-1.878,1.428,0,.877.551,1.347,2.714,2,2.266.714,4.673,1.469,4.673,4.387,0,2.674-2.142,4.306-5.183,4.306C547.243,308.406,545.324,307,544.549,304.876Z" fill="#fff"/>
      <path id="Path_44" data-name="Path 44" d="M562.447,306.019A2.826,2.826,0,0,0,564.732,305l2.123,1.225a5.164,5.164,0,0,1-4.449,2.183,5.389,5.389,0,1,1-.2-10.775,5.159,5.159,0,0,1,5.163,5.388,6.1,6.1,0,0,1-.1,1.081H559.57A2.678,2.678,0,0,0,562.447,306.019Zm2.285-3.959A2.474,2.474,0,0,0,562.2,300a2.544,2.544,0,0,0-2.673,2.061Z" fill="#fff"/>
      <path id="Path_45" data-name="Path 45" d="M584.6,301.835v6.286h-2.633v-6.1c0-1.2-.612-1.939-1.714-1.939-1.163,0-1.9.776-1.9,2.306v5.735h-2.632v-6.1c0-1.2-.613-1.939-1.714-1.939-1.123,0-1.919.776-1.919,2.306v5.735H569.46v-10.2h2.632V299a3.221,3.221,0,0,1,2.837-1.368,3.059,3.059,0,0,1,2.775,1.47,3.5,3.5,0,0,1,3.041-1.47C583.071,297.631,584.6,299.284,584.6,301.835Z" fill="#fff"/>
      <path id="Path_46" data-name="Path 46" d="M597.506,297.917v10.2h-2.633v-1.2a4.06,4.06,0,0,1-3.326,1.489,5.406,5.406,0,0,1,0-10.775,4.061,4.061,0,0,1,3.326,1.49v-1.2Zm-2.633,5.1a2.827,2.827,0,1,0-2.836,2.877A2.744,2.744,0,0,0,594.873,303.019Z" fill="#fff"/>
      <path id="Path_47" data-name="Path 47" d="M609.575,297.917v10.2h-2.632v-1.143a3.471,3.471,0,0,1-3.041,1.428c-2.163,0-3.857-1.51-3.857-4.224v-6.265h2.632v5.938a1.9,1.9,0,0,0,2.021,2.1c1.286,0,2.245-.755,2.245-2.53v-5.51Z" fill="#fff"/>
      <path id="Path_48" data-name="Path 48" d="M621.745,301.855v6.266h-2.633v-5.939a1.9,1.9,0,0,0-2.02-2.1c-1.286,0-2.245.755-2.245,2.531v5.51h-2.632v-10.2h2.632v1.143a3.47,3.47,0,0,1,3.041-1.429C620.051,297.631,621.745,299.141,621.745,301.855Z" fill="#fff"/>
      <path id="Path_49" data-name="Path 49" d="M633.2,297.917l-3.714,10.2c-1.061,2.938-2.8,4.224-5.387,4.081v-2.449a2.486,2.486,0,0,0,2.673-1.959l-4.183-9.877h2.877l2.653,6.857,2.265-6.857Z" fill="#fff"/>
      <path id="Path_50" data-name="Path 50" d="M644.621,297.917v10.2h-2.632v-1.2a4.064,4.064,0,0,1-3.327,1.489,5.406,5.406,0,0,1,0-10.775,4.065,4.065,0,0,1,3.327,1.49v-1.2Zm-2.632,5.1a2.827,2.827,0,1,0-2.837,2.877A2.744,2.744,0,0,0,641.989,303.019Z" fill="#fff"/>
      <path id="Path_51" data-name="Path 51" d="M647.071,306.651a1.734,1.734,0,1,1,1.735,1.735A1.733,1.733,0,0,1,647.071,306.651Z" fill="#fff"/>
    </g>
  </g>
</svg>
